<?xml version="1.0" standalone="no"?><!DOCTYPE svg PUBLIC "-//W3C//DTD SVG 1.1//EN" "http://www.w3.org/Graphics/SVG/1.1/DTD/svg11.dtd"><svg t="1724744696061" class="icon" viewBox="0 0 1024 1024" version="1.1" xmlns="http://www.w3.org/2000/svg" p-id="4122" xmlns:xlink="http://www.w3.org/1999/xlink" width="128" height="128"><path d="M170.666667 298.666667h187.392l53.333333-85.333334H128a42.666667 42.666667 0 0 0-42.666667 42.666667v512a42.666667 42.666667 0 0 0 42.666667 42.666667h213.333333v-85.333334H170.666667V298.666667zM597.333333 298.666667V213.333333h213.333334a42.666667 42.666667 0 0 1 42.666666 42.666667v512a42.666667 42.666667 0 0 1-42.666666 42.666667h-283.349334l53.333334-85.333334H768V298.666667h-170.666667z" fill="#1afa29" p-id="4123"></path><path d="M512 469.333333V213.333333l-213.333333 341.333334h128v256l213.333333-341.333334h-128zM896 384h85.333333v256h-85.333333V384z" fill="#1afa29" p-id="4124"></path></svg>