<?xml version="1.0" standalone="no"?><!DOCTYPE svg PUBLIC "-//W3C//DTD SVG 1.1//EN" "http://www.w3.org/Graphics/SVG/1.1/DTD/svg11.dtd"><svg t="1724744712687" class="icon" viewBox="0 0 1024 1024" version="1.1" xmlns="http://www.w3.org/2000/svg" p-id="5030" xmlns:xlink="http://www.w3.org/1999/xlink" width="128" height="128"><path d="M945.23 472.615H1024v78.77h-78.77z m-78.768 472.616h78.769V1024h-78.77z m0-78.77h78.769v78.77h-78.77z m0-78.769h78.769v78.77h-78.77z m0-78.769h78.769v78.77h-78.77z m0-78.77h78.769v78.77h-78.77z m0-78.768h78.769v78.769h-78.77z m0-78.77h78.769v78.77h-78.77z m0-78.769h78.769v78.77h-78.77z m-78.77 551.385h78.77V1024h-78.77z" fill="#1E2028" p-id="5031"></path><path d="M787.692 866.462h78.77v78.769h-78.77z m0-78.77h78.77v78.77h-78.77z m0-78.769h78.77v78.77h-78.77z m0-78.77h78.77v78.77h-78.77z m0-78.768h78.77v78.769h-78.77z" fill="#FF9343" p-id="5032"></path><path d="M787.692 472.615h78.77v78.77h-78.77z" fill="#1E2028" p-id="5033"></path><path d="M787.692 393.846h78.77v78.77h-78.77z" fill="#AF1441" p-id="5034"></path><path d="M787.692 315.077h78.77v78.77h-78.77z m0-78.77h78.77v78.77h-78.77z m0-78.769h78.77v78.77h-78.77z m-78.769 787.693h78.77V1024h-78.77z" fill="#1E2028" p-id="5035"></path><path d="M708.923 866.462h78.77v78.769h-78.77z m0-78.77h78.77v78.77h-78.77z m0-78.769h78.77v78.77h-78.77z m0-78.77h78.77v78.77h-78.77z" fill="#FFDD4D" p-id="5036"></path><path d="M708.923 551.385h78.77v78.769h-78.77z" fill="#FF9343" p-id="5037"></path><path d="M708.923 472.615h78.77v78.77h-78.77z" fill="#1E2028" p-id="5038"></path><path d="M708.923 393.846h78.77v78.77h-78.77z" fill="#FF1A51" p-id="5039"></path><path d="M708.923 315.077h78.77v78.77h-78.77z" fill="#AF1441" p-id="5040"></path><path d="M708.923 236.308h78.77v78.769h-78.77z m-78.77 708.923h78.77V1024h-78.77z" fill="#1E2028" p-id="5041"></path><path d="M630.154 866.462h78.77v78.769h-78.77z m0-78.77h78.77v78.77h-78.77z m0-78.769h78.77v78.77h-78.77z m0-78.77h78.77v78.77h-78.77z" fill="#FFDD4D" p-id="5042"></path><path d="M630.154 551.385h78.77v78.769h-78.77z" fill="#FF9343" p-id="5043"></path><path d="M630.154 472.615h78.77v78.77h-78.77z" fill="#1E2028" p-id="5044"></path><path d="M630.154 393.846h78.77v78.77h-78.77z m0-78.77h78.77v78.77h-78.77z" fill="#FF1A51" p-id="5045"></path><path d="M630.154 236.308h78.77v78.769h-78.77z" fill="#AF1441" p-id="5046"></path><path d="M630.154 157.538h78.77v78.77h-78.77z m-78.77 787.693h78.77V1024h-78.77z" fill="#1E2028" p-id="5047"></path><path d="M551.385 866.462h78.769v78.769h-78.77z m0-78.77h78.769v78.77h-78.77z m0-78.769h78.769v78.77h-78.77z m0-78.77h78.769v78.77h-78.77z" fill="#FFDD4D" p-id="5048"></path><path d="M551.385 551.385h78.769v78.769h-78.77z" fill="#FF9343" p-id="5049"></path><path d="M551.385 472.615h78.769v78.77h-78.77z" fill="#1E2028" p-id="5050"></path><path d="M551.385 393.846h78.769v78.77h-78.77z m0-78.77h78.769v78.77h-78.77z m0-78.768h78.769v78.769h-78.77z" fill="#FF1A51" p-id="5051"></path><path d="M551.385 157.538h78.769v78.77h-78.77z" fill="#AF1441" p-id="5052"></path><path d="M551.385 78.77h78.769v78.768h-78.77z m-78.77 866.46h78.77V1024h-78.77z" fill="#1E2028" p-id="5053"></path><path d="M472.615 866.462h78.77v78.769h-78.77z m0-78.77h78.77v78.77h-78.77z m0-78.769h78.77v78.77h-78.77z m0-78.77h78.77v78.77h-78.77z" fill="#FFDD4D" p-id="5054"></path><path d="M472.615 551.385h78.77v78.769h-78.77z" fill="#FF9343" p-id="5055"></path><path d="M472.615 472.615h78.77v78.77h-78.77z" fill="#1E2028" p-id="5056"></path><path d="M472.615 393.846h78.77v78.77h-78.77z m0-78.77h78.77v78.77h-78.77z m0-78.768h78.77v78.769h-78.77z m0-78.77h78.77v78.77h-78.77z" fill="#FF1A51" p-id="5057"></path><path d="M472.615 78.77h78.77v78.768h-78.77z" fill="#F4608A" p-id="5058"></path><path d="M472.615 0h78.77v78.77h-78.77z m-78.769 945.23h78.77V1024h-78.77z m0-78.768h78.77v78.769h-78.77z m0-78.77h78.77v78.77h-78.77z m0-78.769h78.77v78.77h-78.77z" fill="#1E2028" p-id="5059"></path><path d="M393.846 630.154h78.77v78.77h-78.77z" fill="#FFDD4D" p-id="5060"></path><path d="M393.846 551.385h78.77v78.769h-78.77z" fill="#FF9343" p-id="5061"></path><path d="M393.846 472.615h78.77v78.77h-78.77z" fill="#1E2028" p-id="5062"></path><path d="M393.846 393.846h78.77v78.77h-78.77z m0-78.77h78.77v78.77h-78.77z m0-78.768h78.77v78.769h-78.77z" fill="#FF1A51" p-id="5063"></path><path d="M393.846 157.538h78.77v78.77h-78.77z" fill="#F4608A" p-id="5064"></path><path d="M393.846 78.77h78.77v78.768h-78.77z m-78.77 866.46h78.77V1024h-78.77z" fill="#1E2028" p-id="5065"></path><path d="M315.077 866.462h78.77v78.769h-78.77z m0-78.77h78.77v78.77h-78.77z m0-78.769h78.77v78.77h-78.77z m0-78.77h78.77v78.77h-78.77z" fill="#FFDD4D" p-id="5066"></path><path d="M315.077 551.385h78.77v78.769h-78.77z" fill="#FF9343" p-id="5067"></path><path d="M315.077 472.615h78.77v78.77h-78.77z" fill="#1E2028" p-id="5068"></path><path d="M315.077 393.846h78.77v78.77h-78.77z m0-78.77h78.77v78.77h-78.77z" fill="#FF1A51" p-id="5069"></path><path d="M315.077 236.308h78.77v78.769h-78.77z" fill="#F4608A" p-id="5070"></path><path d="M315.077 157.538h78.77v78.77h-78.77z m-78.77 787.693h78.77V1024h-78.77z" fill="#1E2028" p-id="5071"></path><path d="M236.308 866.462h78.769v78.769h-78.77z m0-78.77h78.769v78.77h-78.77z m0-78.769h78.769v78.77h-78.77z m0-78.77h78.769v78.77h-78.77z" fill="#FFDD4D" p-id="5072"></path><path d="M236.308 551.385h78.769v78.769h-78.77z" fill="#FF9343" p-id="5073"></path><path d="M236.308 472.615h78.769v78.77h-78.77z" fill="#1E2028" p-id="5074"></path><path d="M236.308 393.846h78.769v78.77h-78.77z" fill="#FF1A51" p-id="5075"></path><path d="M236.308 315.077h78.769v78.77h-78.77z" fill="#F4608A" p-id="5076"></path><path d="M236.308 236.308h78.769v78.769h-78.77z m-78.77 708.923h78.77V1024h-78.77z" fill="#1E2028" p-id="5077"></path><path d="M157.538 866.462h78.77v78.769h-78.77z m0-78.77h78.77v78.77h-78.77z m0-78.769h78.77v78.77h-78.77z m0-78.77h78.77v78.77h-78.77z" fill="#FFF1B6" p-id="5078"></path><path d="M157.538 551.385h78.77v78.769h-78.77z" fill="#FF9343" p-id="5079"></path><path d="M157.538 472.615h78.77v78.77h-78.77z" fill="#1E2028" p-id="5080"></path><path d="M157.538 393.846h78.77v78.77h-78.77z" fill="#F4608A" p-id="5081"></path><path d="M157.538 315.077h78.77v78.77h-78.77zM78.77 945.23h78.77V1024h-78.77z m0-78.77h78.77v78.77h-78.77z m0-78.769h78.77v78.77h-78.77z m0-78.769h78.77v78.77h-78.77z m0-78.77h78.77v78.77h-78.77z m0-78.768h78.77v78.769h-78.77z m0-78.77h78.77v78.77h-78.77z m0-78.769h78.77v78.77h-78.77zM0 472.616h78.77v78.769H0z" fill="#1E2028" p-id="5082"></path></svg>