<?xml version="1.0" standalone="no"?><!DOCTYPE svg PUBLIC "-//W3C//DTD SVG 1.1//EN" "http://www.w3.org/Graphics/SVG/1.1/DTD/svg11.dtd"><svg t="1724744709385" class="icon" viewBox="0 0 1024 1024" version="1.1" xmlns="http://www.w3.org/2000/svg" p-id="4446" xmlns:xlink="http://www.w3.org/1999/xlink" width="128" height="128"><path d="M693.00744389 165.14354722h30.1738658v30.17386583h-30.1738658zM693.00744389 104.79581558h30.1738658v30.17386582h-30.1738658zM693.00744389 74.51469669h30.1738658v30.17386582h-30.1738658zM693.00744389 195.31741305h30.1738658v30.13811476h-30.1738658zM693.00744389 134.9696814h30.1738658v30.17386582h-30.1738658zM843.85889745 346.15099111h30.13811478v30.1738658h-30.13811478zM843.85889745 315.97712527h30.13811478v30.17386584h-30.13811478zM813.68503163 315.97712527h30.17386582v30.17386584h-30.17386582zM813.68503163 285.80325946h30.17386582v30.17386581h-30.17386582zM783.51116581 285.80325946h30.17386582v30.17386581h-30.17386582zM783.51116581 255.62939363h30.17386582v30.17386583h-30.17386582zM753.33729999 255.62939363h30.17386582v30.17386583h-30.17386582zM723.16343418 225.45552781h30.17386581v30.17386582h-30.17386581zM723.16343418 255.62939363h30.17386581v30.17386583h-30.17386581z" fill="#8C3007" p-id="4447"></path><path d="M693.00744389 225.45552781h30.1738658v30.17386582h-30.1738658zM662.83357805 225.45552781h30.17386584v30.17386582h-30.17386584zM934.34474386 647.83602269h30.17386584v30.17386584h-30.17386584zM934.34474386 617.66215691h30.17386584v30.17386578h-30.17386584zM934.34474386 587.48829108h30.17386584v30.17386583h-30.17386584zM934.34474386 557.31442525h30.17386584v30.17386583h-30.17386584zM904.17087806 858.99945689h30.1738658V889.17332271h-30.1738658zM904.17087806 828.82559106h30.1738658v30.17386583h-30.1738658zM904.17087806 798.65172527h30.1738658v30.17386579h-30.1738658zM904.17087806 768.47785942h30.1738658v30.17386585h-30.1738658z" fill="#8C3007" p-id="4448"></path><path d="M904.17087806 738.32186914h30.1738658v30.1738658h-30.1738658zM904.17087806 708.14800331h30.1738658v30.17386583h-30.1738658zM904.17087806 677.99201302h30.1738658v30.1381148h-30.1738658z" fill="#8C3007" p-id="4449"></path><path d="M904.17087806 647.83602269h30.1738658v30.17386584h-30.1738658z" fill="#8C3007" p-id="4450"></path><path d="M904.17087806 617.66215691h30.1738658v30.17386578h-30.1738658zM904.17087806 587.48829108h30.1738658v30.17386583h-30.1738658z" fill="#FFCB78" p-id="4451"></path><path d="M904.17087806 557.31442525h30.1738658v30.17386583h-30.1738658zM904.17087806 527.14055947h30.1738658v30.17386578h-30.1738658zM873.99701223 858.99945689h30.17386583V889.17332271h-30.17386583z" fill="#8C3007" p-id="4452"></path><path d="M873.99701223 828.82559106h30.17386583v30.17386583h-30.17386583zM873.99701223 798.65172527h30.17386583v30.17386579h-30.17386583zM873.99701223 768.47785942h30.17386583v30.17386585h-30.17386583z" fill="#FFCB78" p-id="4453"></path><path d="M873.99701223 738.32186914h30.17386583v30.1738658h-30.17386583zM873.99701223 708.14800331h30.17386583v30.17386583h-30.17386583zM873.99701223 677.99201302h30.17386583v30.1381148h-30.17386583z" fill="#FFCB78" p-id="4454"></path><path d="M873.99701223 647.83602269h30.17386583v30.17386584h-30.17386583z" fill="#FFCB78" p-id="4455"></path><path d="M873.99701223 617.66215691h30.17386583v30.17386578h-30.17386583z" fill="#520C07" p-id="4456"></path><path d="M873.99701223 587.48829108h30.17386583v30.17386583h-30.17386583zM873.99701223 557.31442525h30.17386583v30.17386583h-30.17386583z" fill="#FFCB78" p-id="4457"></path><path d="M873.99701223 527.14055947h30.17386583v30.17386578h-30.17386583zM873.99701223 496.96669364h30.17386583v30.17386583h-30.17386583zM873.99701223 466.7928278h30.17386583v30.17386584h-30.17386583z" fill="#8C3007" p-id="4458"></path><path d="M873.99701223 436.65471302h30.17386583v30.13811478h-30.17386583zM873.99701223 406.48084721h30.17386583v30.17386581h-30.17386583zM873.99701223 376.30698141h30.17386583v30.1738658h-30.17386583zM843.85889745 919.34718851h30.13811478v30.1381148h-30.13811478zM843.85889745 889.17332271h30.13811478v30.1738658h-30.13811478zM843.85889745 858.99945689h30.13811478V889.17332271h-30.13811478z" fill="#8C3007" p-id="4459"></path><path d="M843.85889745 828.82559106h30.13811478v30.17386583h-30.13811478z" fill="#FFCB78" p-id="4460"></path><path d="M843.85889745 798.65172527h30.13811478v30.17386579h-30.13811478zM843.85889745 768.47785942h30.13811478v30.17386585h-30.13811478z" fill="#520C07" p-id="4461"></path><path d="M843.85889745 738.32186914h30.13811478v30.1738658h-30.13811478z" fill="#520C07" p-id="4462"></path><path d="M843.85889745 708.14800331h30.13811478v30.17386583h-30.13811478zM843.85889745 677.99201302h30.13811478v30.1381148h-30.13811478z" fill="#FFCB78" p-id="4463"></path><path d="M843.85889745 647.83602269h30.13811478v30.17386584h-30.13811478z" fill="#520C07" p-id="4464"></path><path d="M843.85889745 617.66215691h30.13811478v30.17386578h-30.13811478z" fill="#00975C" p-id="4465"></path><path d="M843.85889745 587.48829108h30.13811478v30.17386583h-30.13811478z" fill="#520C07" p-id="4466"></path><path d="M843.85889745 557.31442525h30.13811478v30.17386583h-30.13811478zM843.85889745 527.14055947h30.13811478v30.17386578h-30.13811478zM843.85889745 496.96669364h30.13811478v30.17386583h-30.13811478zM843.85889745 466.7928278h30.13811478v30.17386584h-30.13811478z" fill="#FFCB78" p-id="4467"></path><path d="M843.85889745 436.65471302h30.13811478v30.13811478h-30.13811478zM843.85889745 406.48084721h30.13811478v30.17386581h-30.13811478zM843.85889745 376.30698141h30.13811478v30.1738658h-30.13811478z" fill="#FFCB78" p-id="4468"></path><path d="M813.68503163 919.34718851h30.17386582v30.1381148h-30.17386582z" fill="#8C3007" p-id="4469"></path><path d="M813.68503163 889.17332271h30.17386582v30.1738658h-30.17386582zM813.68503163 858.99945689h30.17386582V889.17332271h-30.17386582z" fill="#FFCB78" p-id="4470"></path><path d="M813.68503163 828.82559106h30.17386582v30.17386583h-30.17386582z" fill="#520C07" p-id="4471"></path><path d="M813.68503163 798.65172527h30.17386582v30.17386579h-30.17386582zM813.68503163 768.47785942h30.17386582v30.17386585h-30.17386582z" fill="#FA7D12" p-id="4472"></path><path d="M813.68503163 738.32186914h30.17386582v30.1738658h-30.17386582z" fill="#FA7D12" p-id="4473"></path><path d="M813.68503163 708.14800331h30.17386582v30.17386583h-30.17386582zM813.68503163 677.99201302h30.17386582v30.1381148h-30.17386582z" fill="#520C07" p-id="4474"></path><path d="M813.68503163 647.83602269h30.17386582v30.17386584h-30.17386582zM813.68503163 617.66215691h30.17386582v30.17386578h-30.17386582z" fill="#520C07" p-id="4475"></path><path d="M813.68503163 587.48829108h30.17386582v30.17386583h-30.17386582z" fill="#00975C" p-id="4476"></path><path d="M813.68503163 557.31442525h30.17386582v30.17386583h-30.17386582zM813.68503163 527.14055947h30.17386582v30.17386578h-30.17386582zM813.68503163 496.96669364h30.17386582v30.17386583h-30.17386582z" fill="#520C07" p-id="4477"></path><path d="M813.68503163 466.7928278h30.17386582v30.17386584h-30.17386582z" fill="#FFCB78" p-id="4478"></path><path d="M813.68503163 436.65471302h30.17386582v30.13811478h-30.17386582zM813.68503163 406.48084721h30.17386582v30.17386581h-30.17386582z" fill="#520C07" p-id="4479"></path><path d="M813.68503163 376.30698141h30.17386582v30.1738658h-30.17386582z" fill="#FFCB78" p-id="4480"></path><path d="M813.68503163 346.15099111h30.17386582v30.1738658h-30.17386582z" fill="#FFCB78" p-id="4481"></path><path d="M783.51116581 919.34718851h30.17386582v30.1381148h-30.17386582z" fill="#8C3007" p-id="4482"></path><path d="M783.51116581 889.17332271h30.17386582v30.1738658h-30.17386582z" fill="#FFCB78" p-id="4483"></path><path d="M783.51116581 858.99945689h30.17386582V889.17332271h-30.17386582z" fill="#520C07" p-id="4484"></path><path d="M783.51116581 828.82559106h30.17386582v30.17386583h-30.17386582zM783.51116581 798.65172527h30.17386582v30.17386579h-30.17386582zM783.51116581 768.47785942h30.17386582v30.17386585h-30.17386582z" fill="#FA7D12" p-id="4485"></path><path d="M783.51116581 738.32186914h30.17386582v30.1738658h-30.17386582z" fill="#FA7D12" p-id="4486"></path><path d="M783.51116581 708.14800331h30.17386582v30.17386583h-30.17386582z" fill="#520C07" p-id="4487"></path><path d="M783.51116581 677.99201302h30.17386582v30.1381148h-30.17386582z" fill="#B54309" p-id="4488"></path><path d="M783.51116581 647.83602269h30.17386582v30.17386584h-30.17386582z" fill="#B54309" p-id="4489"></path><path d="M783.51116581 617.66215691h30.17386582v30.17386578h-30.17386582z" fill="#520C07" p-id="4490"></path><path d="M783.51116581 587.48829108h30.17386582v30.17386583h-30.17386582z" fill="#00975C" p-id="4491"></path><path d="M783.51116581 557.31442525h30.17386582v30.17386583h-30.17386582z" fill="#520C07" p-id="4492"></path><path d="M783.51116581 527.14055947h30.17386582v30.17386578h-30.17386582zM783.51116581 496.96669364h30.17386582v30.17386583h-30.17386582z" fill="#C30202" p-id="4493"></path><path d="M783.51116581 466.7928278h30.17386582v30.17386584h-30.17386582z" fill="#520C07" p-id="4494"></path><path d="M783.51116581 436.65471302h30.17386582v30.13811478h-30.17386582zM783.51116581 406.48084721h30.17386582v30.17386581h-30.17386582z" fill="#FA7D12" p-id="4495"></path><path d="M783.51116581 376.30698141h30.17386582v30.1738658h-30.17386582z" fill="#520C07" p-id="4496"></path><path d="M783.51116581 346.15099111h30.17386582v30.1738658h-30.17386582zM783.51116581 315.97712527h30.17386582v30.17386584h-30.17386582z" fill="#FFCB78" p-id="4497"></path><path d="M753.33729999 919.34718851h30.17386582v30.1381148h-30.17386582z" fill="#8C3007" p-id="4498"></path><path d="M753.33729999 889.17332271h30.17386582v30.1738658h-30.17386582z" fill="#FFCB78" p-id="4499"></path><path d="M753.33729999 858.99945689h30.17386582V889.17332271h-30.17386582z" fill="#520C07" p-id="4500"></path><path d="M753.33729999 828.82559106h30.17386582v30.17386583h-30.17386582zM753.33729999 798.65172527h30.17386582v30.17386579h-30.17386582zM753.33729999 768.47785942h30.17386582v30.17386585h-30.17386582z" fill="#FA7D12" p-id="4501"></path><path d="M753.33729999 738.32186914h30.17386582v30.1738658h-30.17386582z" fill="#FA7D12" p-id="4502"></path><path d="M753.33729999 708.14800331h30.17386582v30.17386583h-30.17386582z" fill="#520C07" p-id="4503"></path><path d="M753.33729999 677.99201302h30.17386582v30.1381148h-30.17386582z" fill="#B54309" p-id="4504"></path><path d="M753.33729999 647.83602269h30.17386582v30.17386584h-30.17386582z" fill="#B54309" p-id="4505"></path><path d="M753.33729999 617.66215691h30.17386582v30.17386578h-30.17386582z" fill="#520C07" p-id="4506"></path><path d="M753.33729999 587.48829108h30.17386582v30.17386583h-30.17386582z" fill="#00975C" p-id="4507"></path><path d="M753.33729999 557.31442525h30.17386582v30.17386583h-30.17386582z" fill="#520C07" p-id="4508"></path><path d="M753.33729999 527.14055947h30.17386582v30.17386578h-30.17386582zM753.33729999 496.96669364h30.17386582v30.17386583h-30.17386582z" fill="#C30202" p-id="4509"></path><path d="M753.33729999 466.7928278h30.17386582v30.17386584h-30.17386582z" fill="#520C07" p-id="4510"></path><path d="M753.33729999 436.65471302h30.17386582v30.13811478h-30.17386582zM753.33729999 406.48084721h30.17386582v30.17386581h-30.17386582zM753.33729999 376.30698141h30.17386582v30.1738658h-30.17386582z" fill="#FA7D12" p-id="4511"></path><path d="M753.33729999 346.15099111h30.17386582v30.1738658h-30.17386582z" fill="#520C07" p-id="4512"></path><path d="M753.33729999 315.97712527h30.17386582v30.17386584h-30.17386582zM753.33729999 285.80325946h30.17386582v30.17386581h-30.17386582z" fill="#FFCB78" p-id="4513"></path><path d="M723.16343418 919.34718851h30.17386581v30.1381148h-30.17386581z" fill="#8C3007" p-id="4514"></path><path d="M723.16343418 889.17332271h30.17386581v30.1738658h-30.17386581z" fill="#FFCB78" p-id="4515"></path><path d="M723.16343418 858.99945689h30.17386581V889.17332271h-30.17386581z" fill="#520C07" p-id="4516"></path><path d="M723.16343418 828.82559106h30.17386581v30.17386583h-30.17386581zM723.16343418 798.65172527h30.17386581v30.17386579h-30.17386581zM723.16343418 768.47785942h30.17386581v30.17386585h-30.17386581z" fill="#FA7D12" p-id="4517"></path><path d="M723.16343418 738.32186914h30.17386581v30.1738658h-30.17386581z" fill="#FA7D12" p-id="4518"></path><path d="M723.16343418 708.14800331h30.17386581v30.17386583h-30.17386581z" fill="#520C07" p-id="4519"></path><path d="M723.16343418 677.99201302h30.17386581v30.1381148h-30.17386581z" fill="#B54309" p-id="4520"></path><path d="M723.16343418 647.83602269h30.17386581v30.17386584h-30.17386581z" fill="#B54309" p-id="4521"></path><path d="M723.16343418 617.66215691h30.17386581v30.17386578h-30.17386581z" fill="#520C07" p-id="4522"></path><path d="M723.16343418 587.48829108h30.17386581v30.17386583h-30.17386581z" fill="#6BA348" p-id="4523"></path><path d="M723.16343418 557.31442525h30.17386581v30.17386583h-30.17386581z" fill="#520C07" p-id="4524"></path><path d="M723.16343418 527.14055947h30.17386581v30.17386578h-30.17386581zM723.16343418 496.96669364h30.17386581v30.17386583h-30.17386581z" fill="#C30202" p-id="4525"></path><path d="M723.16343418 466.7928278h30.17386581v30.17386584h-30.17386581z" fill="#520C07" p-id="4526"></path><path d="M723.16343418 436.65471302h30.17386581v30.13811478h-30.17386581zM723.16343418 406.48084721h30.17386581v30.17386581h-30.17386581zM723.16343418 376.30698141h30.17386581v30.1738658h-30.17386581z" fill="#FA7D12" p-id="4527"></path><path d="M723.16343418 346.15099111h30.17386581v30.1738658h-30.17386581z" fill="#FA7D12" p-id="4528"></path><path d="M723.16343418 315.97712527h30.17386581v30.17386584h-30.17386581z" fill="#520C07" p-id="4529"></path><path d="M723.16343418 285.80325946h30.17386581v30.17386581h-30.17386581z" fill="#FFCB78" p-id="4530"></path><path d="M693.00744389 919.34718851h30.1738658v30.1381148h-30.1738658z" fill="#8C3007" p-id="4531"></path><path d="M693.00744389 889.17332271h30.1738658v30.1738658h-30.1738658z" fill="#FFCB78" p-id="4532"></path><path d="M693.00744389 858.99945689h30.1738658V889.17332271h-30.1738658z" fill="#520C07" p-id="4533"></path><path d="M693.00744389 828.82559106h30.1738658v30.17386583h-30.1738658zM693.00744389 798.65172527h30.1738658v30.17386579h-30.1738658zM693.00744389 768.47785942h30.1738658v30.17386585h-30.1738658z" fill="#FA7D12" p-id="4534"></path><path d="M693.00744389 738.32186914h30.1738658v30.1738658h-30.1738658z" fill="#FA7D12" p-id="4535"></path><path d="M693.00744389 708.14800331h30.1738658v30.17386583h-30.1738658z" fill="#520C07" p-id="4536"></path><path d="M693.00744389 677.99201302h30.1738658v30.1381148h-30.1738658z" fill="#B54309" p-id="4537"></path><path d="M693.00744389 647.83602269h30.1738658v30.17386584h-30.1738658z" fill="#B54309" p-id="4538"></path><path d="M693.00744389 617.66215691h30.1738658v30.17386578h-30.1738658z" fill="#520C07" p-id="4539"></path><path d="M693.00744389 587.48829108h30.1738658v30.17386583h-30.1738658z" fill="#6BA348" p-id="4540"></path><path d="M693.00744389 557.31442525h30.1738658v30.17386583h-30.1738658z" fill="#520C07" p-id="4541"></path><path d="M693.00744389 527.14055947h30.1738658v30.17386578h-30.1738658zM693.00744389 496.96669364h30.1738658v30.17386583h-30.1738658z" fill="#C30202" p-id="4542"></path><path d="M693.00744389 466.7928278h30.1738658v30.17386584h-30.1738658z" fill="#520C07" p-id="4543"></path><path d="M693.00744389 436.65471302h30.1738658v30.13811478h-30.1738658zM693.00744389 406.48084721h30.1738658v30.17386581h-30.1738658z" fill="#FA7D12" p-id="4544"></path><path d="M693.00744389 376.30698141h30.1738658v30.1738658h-30.1738658z" fill="#FFFFFF" p-id="4545"></path><path d="M693.00744389 346.15099111h30.1738658v30.1738658h-30.1738658z" fill="#FA7D12" p-id="4546"></path><path d="M693.00744389 315.97712527h30.1738658v30.17386584h-30.1738658z" fill="#520C07" p-id="4547"></path><path d="M693.00744389 285.80325946h30.1738658v30.17386581h-30.1738658zM693.00744389 255.62939363h30.1738658v30.17386583h-30.1738658z" fill="#FFCB78" p-id="4548"></path><path d="M662.83357805 919.34718851h30.17386584v30.1381148h-30.17386584z" fill="#8C3007" p-id="4549"></path><path d="M662.83357805 889.17332271h30.17386584v30.1738658h-30.17386584z" fill="#FFCB78" p-id="4550"></path><path d="M662.83357805 858.99945689h30.17386584V889.17332271h-30.17386584z" fill="#520C07" p-id="4551"></path><path d="M662.83357805 828.82559106h30.17386584v30.17386583h-30.17386584zM662.83357805 798.65172527h30.17386584v30.17386579h-30.17386584zM662.83357805 768.47785942h30.17386584v30.17386585h-30.17386584z" fill="#FA7D12" p-id="4552"></path><path d="M662.83357805 738.32186914h30.17386584v30.1738658h-30.17386584z" fill="#FA7D12" p-id="4553"></path><path d="M662.83357805 708.14800331h30.17386584v30.17386583h-30.17386584z" fill="#520C07" p-id="4554"></path><path d="M662.83357805 677.99201302h30.17386584v30.1381148h-30.17386584z" fill="#B54309" p-id="4555"></path><path d="M662.83357805 647.83602269h30.17386584v30.17386584h-30.17386584z" fill="#B54309" p-id="4556"></path><path d="M662.83357805 617.66215691h30.17386584v30.17386578h-30.17386584z" fill="#520C07" p-id="4557"></path><path d="M662.83357805 587.48829108h30.17386584v30.17386583h-30.17386584z" fill="#6BA348" p-id="4558"></path><path d="M662.83357805 557.31442525h30.17386584v30.17386583h-30.17386584z" fill="#520C07" p-id="4559"></path><path d="M662.83357805 527.14055947h30.17386584v30.17386578h-30.17386584zM662.83357805 496.96669364h30.17386584v30.17386583h-30.17386584z" fill="#C30202" p-id="4560"></path><path d="M662.83357805 466.7928278h30.17386584v30.17386584h-30.17386584z" fill="#520C07" p-id="4561"></path><path d="M662.83357805 436.65471302h30.17386584v30.13811478h-30.17386584zM662.83357805 406.48084721h30.17386584v30.17386581h-30.17386584zM662.83357805 376.30698141h30.17386584v30.1738658h-30.17386584z" fill="#FA7D12" p-id="4562"></path><path d="M662.83357805 346.15099111h30.17386584v30.1738658h-30.17386584z" fill="#FA7D12" p-id="4563"></path><path d="M662.83357805 315.97712527h30.17386584v30.17386584h-30.17386584z" fill="#FD9746" p-id="4564"></path><path d="M662.83357805 285.80325946h30.17386584v30.17386581h-30.17386584z" fill="#520C07" p-id="4565"></path><path d="M662.83357805 255.62939363h30.17386584v30.17386583h-30.17386584zM662.83357805 195.31741305h30.17386584v30.13811476h-30.17386584zM662.83357805 165.14354722h30.17386584v30.17386583h-30.17386584zM662.83357805 134.9696814h30.17386584v30.17386582h-30.17386584zM662.83357805 104.79581558h30.17386584v30.17386582h-30.17386584z" fill="#FFCB78" p-id="4566"></path><path d="M632.65971222 919.34718851h30.17386583v30.1381148H632.65971222z" fill="#8C3007" p-id="4567"></path><path d="M632.65971222 889.17332271h30.17386583v30.1738658H632.65971222z" fill="#FFCB78" p-id="4568"></path><path d="M632.65971222 858.99945689h30.17386583V889.17332271H632.65971222z" fill="#520C07" p-id="4569"></path><path d="M632.65971222 828.82559106h30.17386583v30.17386583H632.65971222zM632.65971222 798.65172527h30.17386583v30.17386579H632.65971222zM632.65971222 768.47785942h30.17386583v30.17386585H632.65971222z" fill="#FA7D12" p-id="4570"></path><path d="M632.65971222 738.32186914h30.17386583v30.1738658H632.65971222z" fill="#FA7D12" p-id="4571"></path><path d="M632.65971222 708.14800331h30.17386583v30.17386583H632.65971222z" fill="#520C07" p-id="4572"></path><path d="M632.65971222 677.99201302h30.17386583v30.1381148H632.65971222z" fill="#B54309" p-id="4573"></path><path d="M632.65971222 647.83602269h30.17386583v30.17386584H632.65971222z" fill="#B54309" p-id="4574"></path><path d="M632.65971222 617.66215691h30.17386583v30.17386578H632.65971222z" fill="#520C07" p-id="4575"></path><path d="M632.65971222 587.48829108h30.17386583v30.17386583H632.65971222z" fill="#6BA348" p-id="4576"></path><path d="M632.65971222 557.31442525h30.17386583v30.17386583H632.65971222z" fill="#520C07" p-id="4577"></path><path d="M632.65971222 527.14055947h30.17386583v30.17386578H632.65971222zM632.65971222 496.96669364h30.17386583v30.17386583H632.65971222z" fill="#C30202" p-id="4578"></path><path d="M632.65971222 466.7928278h30.17386583v30.17386584H632.65971222z" fill="#520C07" p-id="4579"></path><path d="M632.65971222 436.65471302h30.17386583v30.13811478H632.65971222zM632.65971222 406.48084721h30.17386583v30.17386581H632.65971222zM632.65971222 376.30698141h30.17386583v30.1738658H632.65971222z" fill="#FA7D12" p-id="4580"></path><path d="M632.65971222 346.15099111h30.17386583v30.1738658H632.65971222z" fill="#FFFFFF" p-id="4581"></path><path d="M632.65971222 315.97712527h30.17386583v30.17386584H632.65971222z" fill="#FD9746" p-id="4582"></path><path d="M632.65971222 285.80325946h30.17386583v30.17386581H632.65971222z" fill="#520C07" p-id="4583"></path><path d="M632.65971222 255.62939363h30.17386583v30.17386583H632.65971222zM632.65971222 225.45552781h30.17386583v30.17386582H632.65971222z" fill="#FFCB78" p-id="4584"></path><path d="M632.65971222 195.31741305h30.17386583v30.13811476H632.65971222zM632.65971222 165.14354722h30.17386583v30.17386583H632.65971222zM632.65971222 134.9696814h30.17386583v30.17386582H632.65971222zM632.65971222 104.79581558h30.17386583v30.17386582H632.65971222z" fill="#520C07" p-id="4585"></path><path d="M602.52159746 919.34718851h30.13811476v30.1381148h-30.13811476z" fill="#8C3007" p-id="4586"></path><path d="M602.52159746 889.17332271h30.13811476v30.1738658h-30.13811476z" fill="#FFCB78" p-id="4587"></path><path d="M602.52159746 858.99945689h30.13811476V889.17332271h-30.13811476z" fill="#520C07" p-id="4588"></path><path d="M602.52159746 828.82559106h30.13811476v30.17386583h-30.13811476zM602.52159746 798.65172527h30.13811476v30.17386579h-30.13811476zM602.52159746 768.47785942h30.13811476v30.17386585h-30.13811476z" fill="#FA7D12" p-id="4589"></path><path d="M602.52159746 738.32186914h30.13811476v30.1738658h-30.13811476z" fill="#FA7D12" p-id="4590"></path><path d="M602.52159746 708.14800331h30.13811476v30.17386583h-30.13811476z" fill="#520C07" p-id="4591"></path><path d="M602.52159746 677.99201302h30.13811476v30.1381148h-30.13811476z" fill="#B54309" p-id="4592"></path><path d="M602.52159746 647.83602269h30.13811476v30.17386584h-30.13811476z" fill="#B54309" p-id="4593"></path><path d="M602.52159746 617.66215691h30.13811476v30.17386578h-30.13811476z" fill="#520C07" p-id="4594"></path><path d="M602.52159746 587.48829108h30.13811476v30.17386583h-30.13811476z" fill="#6BA348" p-id="4595"></path><path d="M602.52159746 557.31442525h30.13811476v30.17386583h-30.13811476z" fill="#520C07" p-id="4596"></path><path d="M602.52159746 527.14055947h30.13811476v30.17386578h-30.13811476zM602.52159746 496.96669364h30.13811476v30.17386583h-30.13811476z" fill="#C30202" p-id="4597"></path><path d="M602.52159746 466.7928278h30.13811476v30.17386584h-30.13811476z" fill="#520C07" p-id="4598"></path><path d="M602.52159746 436.65471302h30.13811476v30.13811478h-30.13811476zM602.52159746 406.48084721h30.13811476v30.17386581h-30.13811476zM602.52159746 376.30698141h30.13811476v30.1738658h-30.13811476z" fill="#FA7D12" p-id="4599"></path><path d="M602.52159746 346.15099111h30.13811476v30.1738658h-30.13811476z" fill="#FA7D12" p-id="4600"></path><path d="M602.52159746 315.97712527h30.13811476v30.17386584h-30.13811476z" fill="#FD9746" p-id="4601"></path><path d="M602.52159746 285.80325946h30.13811476v30.17386581h-30.13811476z" fill="#FFFFFF" p-id="4602"></path><path d="M602.52159746 255.62939363h30.13811476v30.17386583h-30.13811476z" fill="#520C07" p-id="4603"></path><path d="M602.52159746 225.45552781h30.13811476v30.17386582h-30.13811476z" fill="#FFCB78" p-id="4604"></path><path d="M602.52159746 195.31741305h30.13811476v30.13811476h-30.13811476z" fill="#520C07" p-id="4605"></path><path d="M602.52159746 165.14354722h30.13811476v30.17386583h-30.13811476zM602.52159746 134.9696814h30.13811476v30.17386582h-30.13811476z" fill="#C30202" p-id="4606"></path><path d="M602.52159746 104.79581558h30.13811476v30.17386582h-30.13811476z" fill="#520C07" p-id="4607"></path><path d="M572.34773164 919.34718851h30.17386582v30.1381148h-30.17386582z" fill="#8C3007" p-id="4608"></path><path d="M572.34773164 889.17332271h30.17386582v30.1738658h-30.17386582z" fill="#FFCB78" p-id="4609"></path><path d="M572.34773164 858.99945689h30.17386582V889.17332271h-30.17386582z" fill="#520C07" p-id="4610"></path><path d="M572.34773164 828.82559106h30.17386582v30.17386583h-30.17386582zM572.34773164 798.65172527h30.17386582v30.17386579h-30.17386582zM572.34773164 768.47785942h30.17386582v30.17386585h-30.17386582z" fill="#FA7D12" p-id="4611"></path><path d="M572.34773164 738.32186914h30.17386582v30.1738658h-30.17386582z" fill="#FA7D12" p-id="4612"></path><path d="M572.34773164 708.14800331h30.17386582v30.17386583h-30.17386582z" fill="#520C07" p-id="4613"></path><path d="M572.34773164 677.99201302h30.17386582v30.1381148h-30.17386582z" fill="#B54309" p-id="4614"></path><path d="M572.34773164 647.83602269h30.17386582v30.17386584h-30.17386582zM572.34773164 617.66215691h30.17386582v30.17386578h-30.17386582z" fill="#520C07" p-id="4615"></path><path d="M572.34773164 587.48829108h30.17386582v30.17386583h-30.17386582z" fill="#6BA348" p-id="4616"></path><path d="M572.34773164 557.31442525h30.17386582v30.17386583h-30.17386582z" fill="#520C07" p-id="4617"></path><path d="M572.34773164 527.14055947h30.17386582v30.17386578h-30.17386582zM572.34773164 496.96669364h30.17386582v30.17386583h-30.17386582z" fill="#C30202" p-id="4618"></path><path d="M572.34773164 466.7928278h30.17386582v30.17386584h-30.17386582z" fill="#520C07" p-id="4619"></path><path d="M572.34773164 436.65471302h30.17386582v30.13811478h-30.17386582zM572.34773164 406.48084721h30.17386582v30.17386581h-30.17386582zM572.34773164 376.30698141h30.17386582v30.1738658h-30.17386582z" fill="#FA7D12" p-id="4620"></path><path d="M572.34773164 346.15099111h30.17386582v30.1738658h-30.17386582z" fill="#FA7D12" p-id="4621"></path><path d="M572.34773164 315.97712527h30.17386582v30.17386584h-30.17386582z" fill="#FFFFFF" p-id="4622"></path><path d="M572.34773164 285.80325946h30.17386582v30.17386581h-30.17386582z" fill="#FD9746" p-id="4623"></path><path d="M572.34773164 255.62939363h30.17386582v30.17386583h-30.17386582z" fill="#520C07" p-id="4624"></path><path d="M572.34773164 225.45552781h30.17386582v30.17386582h-30.17386582z" fill="#FFCB78" p-id="4625"></path><path d="M572.34773164 195.31741305h30.17386582v30.13811476h-30.17386582z" fill="#520C07" p-id="4626"></path><path d="M572.34773164 165.14354722h30.17386582v30.17386583h-30.17386582zM572.34773164 134.9696814h30.17386582v30.17386582h-30.17386582z" fill="#C30202" p-id="4627"></path><path d="M572.34773164 104.79581558h30.17386582v30.17386582h-30.17386582z" fill="#520C07" p-id="4628"></path><path d="M542.17386582 919.34718851h30.17386582v30.1381148h-30.17386582z" fill="#8C3007" p-id="4629"></path><path d="M542.17386582 889.17332271h30.17386582v30.1738658h-30.17386582z" fill="#FFCB78" p-id="4630"></path><path d="M542.17386582 858.99945689h30.17386582V889.17332271h-30.17386582z" fill="#520C07" p-id="4631"></path><path d="M542.17386582 828.82559106h30.17386582v30.17386583h-30.17386582zM542.17386582 798.65172527h30.17386582v30.17386579h-30.17386582zM542.17386582 768.47785942h30.17386582v30.17386585h-30.17386582z" fill="#FA7D12" p-id="4632"></path><path d="M542.17386582 738.32186914h30.17386582v30.1738658h-30.17386582z" fill="#FA7D12" p-id="4633"></path><path d="M542.17386582 708.14800331h30.17386582v30.17386583h-30.17386582zM542.17386582 677.99201302h30.17386582v30.1381148h-30.17386582z" fill="#520C07" p-id="4634"></path><path d="M542.17386582 647.83602269h30.17386582v30.17386584h-30.17386582z" fill="#FFCB78" p-id="4635"></path><path d="M542.17386582 617.66215691h30.17386582v30.17386578h-30.17386582z" fill="#520C07" p-id="4636"></path><path d="M542.17386582 587.48829108h30.17386582v30.17386583h-30.17386582z" fill="#6BA348" p-id="4637"></path><path d="M542.17386582 557.31442525h30.17386582v30.17386583h-30.17386582z" fill="#520C07" p-id="4638"></path><path d="M542.17386582 527.14055947h30.17386582v30.17386578h-30.17386582zM542.17386582 496.96669364h30.17386582v30.17386583h-30.17386582z" fill="#C30202" p-id="4639"></path><path d="M542.17386582 466.7928278h30.17386582v30.17386584h-30.17386582z" fill="#520C07" p-id="4640"></path><path d="M542.17386582 436.65471302h30.17386582v30.13811478h-30.17386582zM542.17386582 406.48084721h30.17386582v30.17386581h-30.17386582zM542.17386582 376.30698141h30.17386582v30.1738658h-30.17386582z" fill="#FA7D12" p-id="4641"></path><path d="M542.17386582 346.15099111h30.17386582v30.1738658h-30.17386582zM542.17386582 315.97712527h30.17386582v30.17386584h-30.17386582zM542.17386582 285.80325946h30.17386582v30.17386581h-30.17386582z" fill="#FD9746" p-id="4642"></path><path d="M542.17386582 255.62939363h30.17386582v30.17386583h-30.17386582z" fill="#520C07" p-id="4643"></path><path d="M542.17386582 225.45552781h30.17386582v30.17386582h-30.17386582z" fill="#FFCB78" p-id="4644"></path><path d="M542.17386582 195.31741305h30.17386582v30.13811476h-30.17386582z" fill="#520C07" p-id="4645"></path><path d="M542.17386582 165.14354722h30.17386582v30.17386583h-30.17386582zM542.17386582 134.9696814h30.17386582v30.17386582h-30.17386582z" fill="#C30202" p-id="4646"></path><path d="M542.17386582 104.79581558h30.17386582v30.17386582h-30.17386582z" fill="#520C07" p-id="4647"></path><path d="M512 919.34718851h30.17386582v30.1381148H512z" fill="#8C3007" p-id="4648"></path><path d="M512 889.17332271h30.17386582v30.1738658H512z" fill="#FFCB78" p-id="4649"></path><path d="M512 858.99945689h30.17386582V889.17332271H512z" fill="#520C07" p-id="4650"></path><path d="M512 828.82559106h30.17386582v30.17386583H512zM512 798.65172527h30.17386582v30.17386579H512zM512 768.47785942h30.17386582v30.17386585H512z" fill="#FA7D12" p-id="4651"></path><path d="M512 738.32186914h30.17386582v30.1738658H512z" fill="#FA7D12" p-id="4652"></path><path d="M512 708.14800331h30.17386582v30.17386583H512z" fill="#520C07" p-id="4653"></path><path d="M512 677.99201302h30.17386582v30.1381148H512z" fill="#FFCB78" p-id="4654"></path><path d="M512 647.83602269h30.17386582v30.17386584H512zM512 617.66215691h30.17386582v30.17386578H512z" fill="#FFCB78" p-id="4655"></path><path d="M512 587.48829108h30.17386582v30.17386583H512zM512 557.31442525h30.17386582v30.17386583H512z" fill="#520C07" p-id="4656"></path><path d="M512 527.14055947h30.17386582v30.17386578H512zM512 496.96669364h30.17386582v30.17386583H512z" fill="#C30202" p-id="4657"></path><path d="M512 466.7928278h30.17386582v30.17386584H512z" fill="#520C07" p-id="4658"></path><path d="M512 436.65471302h30.17386582v30.13811478H512zM512 406.48084721h30.17386582v30.17386581H512z" fill="#FA7D12" p-id="4659"></path><path d="M512 376.30698141h30.17386582v30.1738658H512z" fill="#FD9746" p-id="4660"></path><path d="M512 346.15099111h30.17386582v30.1738658H512z" fill="#FFFFFF" p-id="4661"></path><path d="M512 315.97712527h30.17386582v30.17386584H512zM512 285.80325946h30.17386582v30.17386581H512z" fill="#FD9746" p-id="4662"></path><path d="M512 255.62939363h30.17386582v30.17386583H512z" fill="#520C07" p-id="4663"></path><path d="M512 225.45552781h30.17386582v30.17386582H512z" fill="#FFCB78" p-id="4664"></path><path d="M512 195.31741305h30.17386582v30.13811476H512z" fill="#520C07" p-id="4665"></path><path d="M512 165.14354722h30.17386582v30.17386583H512zM512 134.9696814h30.17386582v30.17386582H512z" fill="#C30202" p-id="4666"></path><path d="M512 104.79581558h30.17386582v30.17386582H512z" fill="#520C07" p-id="4667"></path><path d="M481.82613418 919.34718851H512v30.1381148h-30.17386582z" fill="#8C3007" p-id="4668"></path><path d="M481.82613418 889.17332271H512v30.1738658h-30.17386582z" fill="#FFCB78" p-id="4669"></path><path d="M481.82613418 858.99945689H512V889.17332271h-30.17386582z" fill="#520C07" p-id="4670"></path><path d="M481.82613418 828.82559106H512v30.17386583h-30.17386582zM481.82613418 798.65172527H512v30.17386579h-30.17386582zM481.82613418 768.47785942H512v30.17386585h-30.17386582z" fill="#FA7D12" p-id="4671"></path><path d="M481.82613418 738.32186914H512v30.1738658h-30.17386582z" fill="#520C07" p-id="4672"></path><path d="M481.82613418 708.14800331H512v30.17386583h-30.17386582zM481.82613418 677.99201302H512v30.1381148h-30.17386582z" fill="#FFCB78" p-id="4673"></path><path d="M481.82613418 647.83602269H512v30.17386584h-30.17386582z" fill="#FFCB78" p-id="4674"></path><path d="M481.82613418 617.66215691H512v30.17386578h-30.17386582z" fill="#520C07" p-id="4675"></path><path d="M481.82613418 587.48829108H512v30.17386583h-30.17386582z" fill="#00975C" p-id="4676"></path><path d="M481.82613418 557.31442525H512v30.17386583h-30.17386582z" fill="#520C07" p-id="4677"></path><path d="M481.82613418 527.14055947H512v30.17386578h-30.17386582zM481.82613418 496.96669364H512v30.17386583h-30.17386582z" fill="#C30202" p-id="4678"></path><path d="M481.82613418 466.7928278H512v30.17386584h-30.17386582z" fill="#520C07" p-id="4679"></path><path d="M481.82613418 436.65471302H512v30.13811478h-30.17386582zM481.82613418 406.48084721H512v30.17386581h-30.17386582z" fill="#FA7D12" p-id="4680"></path><path d="M481.82613418 376.30698141H512v30.1738658h-30.17386582z" fill="#FD9746" p-id="4681"></path><path d="M481.82613418 346.15099111H512v30.1738658h-30.17386582zM481.82613418 315.97712527H512v30.17386584h-30.17386582z" fill="#FD9746" p-id="4682"></path><path d="M481.82613418 285.80325946H512v30.17386581h-30.17386582z" fill="#FFFFFF" p-id="4683"></path><path d="M481.82613418 255.62939363H512v30.17386583h-30.17386582zM481.82613418 225.45552781H512v30.17386582h-30.17386582zM481.82613418 195.31741305H512v30.13811476h-30.17386582zM481.82613418 165.14354722H512v30.17386583h-30.17386582zM481.82613418 134.9696814H512v30.17386582h-30.17386582zM481.82613418 104.79581558H512v30.17386582h-30.17386582z" fill="#520C07" p-id="4684"></path><path d="M451.65226836 919.34718851h30.17386582v30.1381148h-30.17386582z" fill="#8C3007" p-id="4685"></path><path d="M451.65226836 889.17332271h30.17386582v30.1738658h-30.17386582z" fill="#FFCB78" p-id="4686"></path><path d="M451.65226836 858.99945689h30.17386582V889.17332271h-30.17386582z" fill="#520C07" p-id="4687"></path><path d="M451.65226836 828.82559106h30.17386582v30.17386583h-30.17386582zM451.65226836 798.65172527h30.17386582v30.17386579h-30.17386582z" fill="#FA7D12" p-id="4688"></path><path d="M451.65226836 768.47785942h30.17386582v30.17386585h-30.17386582z" fill="#520C07" p-id="4689"></path><path d="M451.65226836 738.32186914h30.17386582v30.1738658h-30.17386582zM451.65226836 708.14800331h30.17386582v30.17386583h-30.17386582zM451.65226836 677.99201302h30.17386582v30.1381148h-30.17386582z" fill="#FFCB78" p-id="4690"></path><path d="M451.65226836 647.83602269h30.17386582v30.17386584h-30.17386582z" fill="#FFCB78" p-id="4691"></path><path d="M451.65226836 617.66215691h30.17386582v30.17386578h-30.17386582z" fill="#520C07" p-id="4692"></path><path d="M451.65226836 587.48829108h30.17386582v30.17386583h-30.17386582z" fill="#6BA348" p-id="4693"></path><path d="M451.65226836 557.31442525h30.17386582v30.17386583h-30.17386582z" fill="#520C07" p-id="4694"></path><path d="M451.65226836 527.14055947h30.17386582v30.17386578h-30.17386582zM451.65226836 496.96669364h30.17386582v30.17386583h-30.17386582z" fill="#C30202" p-id="4695"></path><path d="M451.65226836 466.7928278h30.17386582v30.17386584h-30.17386582z" fill="#520C07" p-id="4696"></path><path d="M451.65226836 436.65471302h30.17386582v30.13811478h-30.17386582zM451.65226836 406.48084721h30.17386582v30.17386581h-30.17386582z" fill="#FA7D12" p-id="4697"></path><path d="M451.65226836 376.30698141h30.17386582v30.1738658h-30.17386582z" fill="#FD9746" p-id="4698"></path><path d="M451.65226836 346.15099111h30.17386582v30.1738658h-30.17386582zM451.65226836 315.97712527h30.17386582v30.17386584h-30.17386582zM451.65226836 285.80325946h30.17386582v30.17386581h-30.17386582z" fill="#FD9746" p-id="4699"></path><path d="M451.65226836 255.62939363h30.17386582v30.17386583h-30.17386582z" fill="#520C07" p-id="4700"></path><path d="M451.65226836 225.45552781h30.17386582v30.17386582h-30.17386582zM451.65226836 195.31741305h30.17386582v30.13811476h-30.17386582zM451.65226836 165.14354722h30.17386582v30.17386583h-30.17386582zM451.65226836 134.9696814h30.17386582v30.17386582h-30.17386582zM451.65226836 104.79581558h30.17386582v30.17386582h-30.17386582z" fill="#FFCB78" p-id="4701"></path><path d="M421.47840254 919.34718851h30.17386582v30.1381148h-30.17386582z" fill="#8C3007" p-id="4702"></path><path d="M421.47840254 889.17332271h30.17386582v30.1738658h-30.17386582z" fill="#FFCB78" p-id="4703"></path><path d="M421.47840254 858.99945689h30.17386582V889.17332271h-30.17386582z" fill="#520C07" p-id="4704"></path><path d="M421.47840254 828.82559106h30.17386582v30.17386583h-30.17386582z" fill="#FA7D12" p-id="4705"></path><path d="M421.47840254 798.65172527h30.17386582v30.17386579h-30.17386582z" fill="#520C07" p-id="4706"></path><path d="M421.47840254 768.47785942h30.17386582v30.17386585h-30.17386582z" fill="#FFCB78" p-id="4707"></path><path d="M421.47840254 738.32186914h30.17386582v30.1738658h-30.17386582zM421.47840254 708.14800331h30.17386582v30.17386583h-30.17386582zM421.47840254 677.99201302h30.17386582v30.1381148h-30.17386582z" fill="#FFCB78" p-id="4708"></path><path d="M421.47840254 647.83602269h30.17386582v30.17386584h-30.17386582zM421.47840254 617.66215691h30.17386582v30.17386578h-30.17386582z" fill="#FFCB78" p-id="4709"></path><path d="M421.47840254 587.48829108h30.17386582v30.17386583h-30.17386582zM421.47840254 557.31442525h30.17386582v30.17386583h-30.17386582z" fill="#520C07" p-id="4710"></path><path d="M421.47840254 527.14055947h30.17386582v30.17386578h-30.17386582zM421.47840254 496.96669364h30.17386582v30.17386583h-30.17386582z" fill="#C30202" p-id="4711"></path><path d="M421.47840254 466.7928278h30.17386582v30.17386584h-30.17386582z" fill="#520C07" p-id="4712"></path><path d="M421.47840254 436.65471302h30.17386582v30.13811478h-30.17386582zM421.47840254 406.48084721h30.17386582v30.17386581h-30.17386582z" fill="#FA7D12" p-id="4713"></path><path d="M421.47840254 376.30698141h30.17386582v30.1738658h-30.17386582z" fill="#FD9746" p-id="4714"></path><path d="M421.47840254 346.15099111h30.17386582v30.1738658h-30.17386582z" fill="#FD9746" p-id="4715"></path><path d="M421.47840254 315.97712527h30.17386582v30.17386584h-30.17386582z" fill="#FFFFFF" p-id="4716"></path><path d="M421.47840254 285.80325946h30.17386582v30.17386581h-30.17386582z" fill="#FD9746" p-id="4717"></path><path d="M421.47840254 255.62939363h30.17386582v30.17386583h-30.17386582z" fill="#520C07" p-id="4718"></path><path d="M421.47840254 225.45552781h30.17386582v30.17386582h-30.17386582z" fill="#FFCB78" p-id="4719"></path><path d="M391.32241225 919.34718851h30.17386581v30.1381148h-30.17386581z" fill="#8C3007" p-id="4720"></path><path d="M391.32241225 889.17332271h30.17386581v30.1738658h-30.17386581z" fill="#FFCB78" p-id="4721"></path><path d="M391.32241225 858.99945689h30.17386581V889.17332271h-30.17386581z" fill="#520C07" p-id="4722"></path><path d="M391.32241225 828.82559106h30.17386581v30.17386583h-30.17386581zM391.32241225 798.65172527h30.17386581v30.17386579h-30.17386581z" fill="#FA7D12" p-id="4723"></path><path d="M391.32241225 768.47785942h30.17386581v30.17386585h-30.17386581z" fill="#520C07" p-id="4724"></path><path d="M391.32241225 738.32186914h30.17386581v30.1738658h-30.17386581zM391.32241225 708.14800331h30.17386581v30.17386583h-30.17386581zM391.32241225 677.99201302h30.17386581v30.1381148h-30.17386581z" fill="#FFCB78" p-id="4725"></path><path d="M391.32241225 647.83602269h30.17386581v30.17386584h-30.17386581z" fill="#FFCB78" p-id="4726"></path><path d="M391.32241225 617.66215691h30.17386581v30.17386578h-30.17386581z" fill="#520C07" p-id="4727"></path><path d="M391.32241225 587.48829108h30.17386581v30.17386583h-30.17386581z" fill="#00975C" p-id="4728"></path><path d="M391.32241225 557.31442525h30.17386581v30.17386583h-30.17386581z" fill="#520C07" p-id="4729"></path><path d="M391.32241225 527.14055947h30.17386581v30.17386578h-30.17386581zM391.32241225 496.96669364h30.17386581v30.17386583h-30.17386581z" fill="#C30202" p-id="4730"></path><path d="M391.32241225 466.7928278h30.17386581v30.17386584h-30.17386581z" fill="#520C07" p-id="4731"></path><path d="M391.32241225 436.65471302h30.17386581v30.13811478h-30.17386581z" fill="#FA7D12" p-id="4732"></path><path d="M391.32241225 406.48084721h30.17386581v30.17386581h-30.17386581z" fill="#FD9746" p-id="4733"></path><path d="M391.32241225 376.30698141h30.17386581v30.1738658h-30.17386581z" fill="#FFFFFF" p-id="4734"></path><path d="M391.32241225 346.15099111h30.17386581v30.1738658h-30.17386581zM391.32241225 315.97712527h30.17386581v30.17386584h-30.17386581zM391.32241225 285.80325946h30.17386581v30.17386581h-30.17386581z" fill="#FD9746" p-id="4735"></path><path d="M391.32241225 255.62939363h30.17386581v30.17386583h-30.17386581z" fill="#520C07" p-id="4736"></path><path d="M391.32241225 225.45552781h30.17386581v30.17386582h-30.17386581z" fill="#FFCB78" p-id="4737"></path><path d="M361.16642195 919.34718851h30.1381148v30.1381148h-30.1381148z" fill="#8C3007" p-id="4738"></path><path d="M361.16642195 889.17332271h30.1381148v30.1738658h-30.1381148z" fill="#FFCB78" p-id="4739"></path><path d="M361.16642195 858.99945689h30.1381148V889.17332271h-30.1381148z" fill="#520C07" p-id="4740"></path><path d="M361.16642195 828.82559106h30.1381148v30.17386583h-30.1381148zM361.16642195 798.65172527h30.1381148v30.17386579h-30.1381148z" fill="#FA7D12" p-id="4741"></path><path d="M361.16642195 768.47785942h30.1381148v30.17386585h-30.1381148z" fill="#FD9746" p-id="4742"></path><path d="M361.16642195 738.32186914h30.1381148v30.1738658h-30.1381148z" fill="#520C07" p-id="4743"></path><path d="M361.16642195 708.14800331h30.1381148v30.17386583h-30.1381148zM361.16642195 677.99201302h30.1381148v30.1381148h-30.1381148z" fill="#FFCB78" p-id="4744"></path><path d="M361.16642195 647.83602269h30.1381148v30.17386584h-30.1381148z" fill="#FFCB78" p-id="4745"></path><path d="M361.16642195 617.66215691h30.1381148v30.17386578h-30.1381148z" fill="#520C07" p-id="4746"></path><path d="M361.16642195 587.48829108h30.1381148v30.17386583h-30.1381148z" fill="#00975C" p-id="4747"></path><path d="M361.16642195 557.31442525h30.1381148v30.17386583h-30.1381148z" fill="#520C07" p-id="4748"></path><path d="M361.16642195 527.14055947h30.1381148v30.17386578h-30.1381148zM361.16642195 496.96669364h30.1381148v30.17386583h-30.1381148z" fill="#C30202" p-id="4749"></path><path d="M361.16642195 466.7928278h30.1381148v30.17386584h-30.1381148z" fill="#520C07" p-id="4750"></path><path d="M361.16642195 436.65471302h30.1381148v30.13811478h-30.1381148z" fill="#FA7D12" p-id="4751"></path><path d="M361.16642195 406.48084721h30.1381148v30.17386581h-30.1381148zM361.16642195 376.30698141h30.1381148v30.1738658h-30.1381148z" fill="#FD9746" p-id="4752"></path><path d="M361.16642195 346.15099111h30.1381148v30.1738658h-30.1381148zM361.16642195 315.97712527h30.1381148v30.17386584h-30.1381148z" fill="#FD9746" p-id="4753"></path><path d="M361.16642195 285.80325946h30.1381148v30.17386581h-30.1381148z" fill="#520C07" p-id="4754"></path><path d="M361.16642195 255.62939363h30.1381148v30.17386583h-30.1381148zM361.16642195 225.45552781h30.1381148v30.17386582h-30.1381148z" fill="#FFCB78" p-id="4755"></path><path d="M330.99255611 919.34718851h30.17386584v30.1381148h-30.17386584z" fill="#8C3007" p-id="4756"></path><path d="M330.99255611 889.17332271h30.17386584v30.1738658h-30.17386584z" fill="#FFCB78" p-id="4757"></path><path d="M330.99255611 858.99945689h30.17386584V889.17332271h-30.17386584z" fill="#520C07" p-id="4758"></path><path d="M330.99255611 828.82559106h30.17386584v30.17386583h-30.17386584zM330.99255611 798.65172527h30.17386584v30.17386579h-30.17386584z" fill="#FA7D12" p-id="4759"></path><path d="M330.99255611 768.47785942h30.17386584v30.17386585h-30.17386584z" fill="#FD9746" p-id="4760"></path><path d="M330.99255611 738.32186914h30.17386584v30.1738658h-30.17386584z" fill="#FD9746" p-id="4761"></path><path d="M330.99255611 708.14800331h30.17386584v30.17386583h-30.17386584z" fill="#520C07" p-id="4762"></path><path d="M330.99255611 677.99201302h30.17386584v30.1381148h-30.17386584z" fill="#FFCB78" p-id="4763"></path><path d="M330.99255611 647.83602269h30.17386584v30.17386584h-30.17386584z" fill="#520C07" p-id="4764"></path><path d="M330.99255611 617.66215691h30.17386584v30.17386578h-30.17386584zM330.99255611 587.48829108h30.17386584v30.17386583h-30.17386584z" fill="#00975C" p-id="4765"></path><path d="M330.99255611 557.31442525h30.17386584v30.17386583h-30.17386584z" fill="#520C07" p-id="4766"></path><path d="M330.99255611 527.14055947h30.17386584v30.17386578h-30.17386584zM330.99255611 496.96669364h30.17386584v30.17386583h-30.17386584z" fill="#C30202" p-id="4767"></path><path d="M330.99255611 466.7928278h30.17386584v30.17386584h-30.17386584z" fill="#520C07" p-id="4768"></path><path d="M330.99255611 436.65471302h30.17386584v30.13811478h-30.17386584z" fill="#FA7D12" p-id="4769"></path><path d="M330.99255611 406.48084721h30.17386584v30.17386581h-30.17386584zM330.99255611 376.30698141h30.17386584v30.1738658h-30.17386584z" fill="#FD9746" p-id="4770"></path><path d="M330.99255611 346.15099111h30.17386584v30.1738658h-30.17386584z" fill="#FFFFFF" p-id="4771"></path><path d="M330.99255611 315.97712527h30.17386584v30.17386584h-30.17386584z" fill="#FD9746" p-id="4772"></path><path d="M330.99255611 285.80325946h30.17386584v30.17386581h-30.17386584z" fill="#520C07" p-id="4773"></path><path d="M330.99255611 255.62939363h30.17386584v30.17386583h-30.17386584z" fill="#FFCB78" p-id="4774"></path><path d="M300.83656582 919.34718851h30.17386582v30.1381148h-30.17386582z" fill="#8C3007" p-id="4775"></path><path d="M300.83656582 889.17332271h30.17386582v30.1738658h-30.17386582z" fill="#FFCB78" p-id="4776"></path><path d="M300.83656582 858.99945689h30.17386582V889.17332271h-30.17386582z" fill="#520C07" p-id="4777"></path><path d="M300.83656582 828.82559106h30.17386582v30.17386583h-30.17386582zM300.83656582 798.65172527h30.17386582v30.17386579h-30.17386582z" fill="#FA7D12" p-id="4778"></path><path d="M300.83656582 768.47785942h30.17386582v30.17386585h-30.17386582z" fill="#FD9746" p-id="4779"></path><path d="M300.83656582 738.32186914h30.17386582v30.1738658h-30.17386582z" fill="#FD9746" p-id="4780"></path><path d="M300.83656582 708.14800331h30.17386582v30.17386583h-30.17386582zM300.83656582 677.99201302h30.17386582v30.1381148h-30.17386582z" fill="#520C07" p-id="4781"></path><path d="M300.83656582 647.83602269h30.17386582v30.17386584h-30.17386582z" fill="#520C07" p-id="4782"></path><path d="M300.83656582 617.66215691h30.17386582v30.17386578h-30.17386582zM300.83656582 587.48829108h30.17386582v30.17386583h-30.17386582z" fill="#6BA348" p-id="4783"></path><path d="M300.83656582 557.31442525h30.17386582v30.17386583h-30.17386582z" fill="#520C07" p-id="4784"></path><path d="M300.83656582 527.14055947h30.17386582v30.17386578h-30.17386582zM300.83656582 496.96669364h30.17386582v30.17386583h-30.17386582z" fill="#C30202" p-id="4785"></path><path d="M300.83656582 466.7928278h30.17386582v30.17386584h-30.17386582z" fill="#520C07" p-id="4786"></path><path d="M300.83656582 436.65471302h30.17386582v30.13811478h-30.17386582z" fill="#FA7D12" p-id="4787"></path><path d="M300.83656582 406.48084721h30.17386582v30.17386581h-30.17386582zM300.83656582 376.30698141h30.17386582v30.1738658h-30.17386582z" fill="#FD9746" p-id="4788"></path><path d="M300.83656582 346.15099111h30.17386582v30.1738658h-30.17386582z" fill="#FD9746" p-id="4789"></path><path d="M300.83656582 315.97712527h30.17386582v30.17386584h-30.17386582z" fill="#520C07" p-id="4790"></path><path d="M300.83656582 285.80325946h30.17386582v30.17386581h-30.17386582zM300.83656582 255.62939363h30.17386582v30.17386583h-30.17386582z" fill="#FFCB78" p-id="4791"></path><path d="M270.66270001 919.34718851h30.17386581v30.1381148h-30.17386581z" fill="#8C3007" p-id="4792"></path><path d="M270.66270001 889.17332271h30.17386581v30.1738658h-30.17386581z" fill="#FFCB78" p-id="4793"></path><path d="M270.66270001 858.99945689h30.17386581V889.17332271h-30.17386581z" fill="#520C07" p-id="4794"></path><path d="M270.66270001 828.82559106h30.17386581v30.17386583h-30.17386581zM270.66270001 798.65172527h30.17386581v30.17386579h-30.17386581z" fill="#FA7D12" p-id="4795"></path><path d="M270.66270001 768.47785942h30.17386581v30.17386585h-30.17386581z" fill="#FD9746" p-id="4796"></path><path d="M270.66270001 738.32186914h30.17386581v30.1738658h-30.17386581z" fill="#FD9746" p-id="4797"></path><path d="M270.66270001 708.14800331h30.17386581v30.17386583h-30.17386581z" fill="#520C07" p-id="4798"></path><path d="M270.66270001 677.99201302h30.17386581v30.1381148h-30.17386581z" fill="#B54309" p-id="4799"></path><path d="M270.66270001 647.83602269h30.17386581v30.17386584h-30.17386581z" fill="#B54309" p-id="4800"></path><path d="M270.66270001 617.66215691h30.17386581v30.17386578h-30.17386581z" fill="#520C07" p-id="4801"></path><path d="M270.66270001 587.48829108h30.17386581v30.17386583h-30.17386581z" fill="#6BA348" p-id="4802"></path><path d="M270.66270001 557.31442525h30.17386581v30.17386583h-30.17386581z" fill="#520C07" p-id="4803"></path><path d="M270.66270001 527.14055947h30.17386581v30.17386578h-30.17386581zM270.66270001 496.96669364h30.17386581v30.17386583h-30.17386581z" fill="#C30202" p-id="4804"></path><path d="M270.66270001 466.7928278h30.17386581v30.17386584h-30.17386581z" fill="#520C07" p-id="4805"></path><path d="M270.66270001 436.65471302h30.17386581v30.13811478h-30.17386581z" fill="#FA7D12" p-id="4806"></path><path d="M270.66270001 406.48084721h30.17386581v30.17386581h-30.17386581zM270.66270001 376.30698141h30.17386581v30.1738658h-30.17386581z" fill="#FD9746" p-id="4807"></path><path d="M270.66270001 346.15099111h30.17386581v30.1738658h-30.17386581z" fill="#FD9746" p-id="4808"></path><path d="M270.66270001 315.97712527h30.17386581v30.17386584h-30.17386581z" fill="#520C07" p-id="4809"></path><path d="M270.66270001 285.80325946h30.17386581v30.17386581h-30.17386581z" fill="#FFCB78" p-id="4810"></path><path d="M240.48883419 919.34718851h30.17386582v30.1381148h-30.17386582z" fill="#8C3007" p-id="4811"></path><path d="M240.48883419 889.17332271h30.17386582v30.1738658h-30.17386582z" fill="#FFCB78" p-id="4812"></path><path d="M240.48883419 858.99945689h30.17386582V889.17332271h-30.17386582z" fill="#520C07" p-id="4813"></path><path d="M240.48883419 828.82559106h30.17386582v30.17386583h-30.17386582zM240.48883419 798.65172527h30.17386582v30.17386579h-30.17386582z" fill="#FA7D12" p-id="4814"></path><path d="M240.48883419 768.47785942h30.17386582v30.17386585h-30.17386582z" fill="#FD9746" p-id="4815"></path><path d="M240.48883419 738.32186914h30.17386582v30.1738658h-30.17386582z" fill="#FD9746" p-id="4816"></path><path d="M240.48883419 708.14800331h30.17386582v30.17386583h-30.17386582z" fill="#520C07" p-id="4817"></path><path d="M240.48883419 677.99201302h30.17386582v30.1381148h-30.17386582z" fill="#B54309" p-id="4818"></path><path d="M240.48883419 647.83602269h30.17386582v30.17386584h-30.17386582z" fill="#B54309" p-id="4819"></path><path d="M240.48883419 617.66215691h30.17386582v30.17386578h-30.17386582z" fill="#520C07" p-id="4820"></path><path d="M240.48883419 587.48829108h30.17386582v30.17386583h-30.17386582z" fill="#6BA348" p-id="4821"></path><path d="M240.48883419 557.31442525h30.17386582v30.17386583h-30.17386582z" fill="#520C07" p-id="4822"></path><path d="M240.48883419 527.14055947h30.17386582v30.17386578h-30.17386582zM240.48883419 496.96669364h30.17386582v30.17386583h-30.17386582z" fill="#C30202" p-id="4823"></path><path d="M240.48883419 466.7928278h30.17386582v30.17386584h-30.17386582z" fill="#520C07" p-id="4824"></path><path d="M240.48883419 436.65471302h30.17386582v30.13811478h-30.17386582z" fill="#FA7D12" p-id="4825"></path><path d="M240.48883419 406.48084721h30.17386582v30.17386581h-30.17386582zM240.48883419 376.30698141h30.17386582v30.1738658h-30.17386582z" fill="#FD9746" p-id="4826"></path><path d="M240.48883419 346.15099111h30.17386582v30.1738658h-30.17386582z" fill="#520C07" p-id="4827"></path><path d="M240.48883419 315.97712527h30.17386582v30.17386584h-30.17386582zM240.48883419 285.80325946h30.17386582v30.17386581h-30.17386582z" fill="#FFCB78" p-id="4828"></path><path d="M210.31496837 919.34718851h30.17386582v30.1381148h-30.17386582z" fill="#8C3007" p-id="4829"></path><path d="M210.31496837 889.17332271h30.17386582v30.1738658h-30.17386582zM210.31496837 858.99945689h30.17386582V889.17332271h-30.17386582z" fill="#FFCB78" p-id="4830"></path><path d="M210.31496837 828.82559106h30.17386582v30.17386583h-30.17386582z" fill="#520C07" p-id="4831"></path><path d="M210.31496837 798.65172527h30.17386582v30.17386579h-30.17386582z" fill="#FA7D12" p-id="4832"></path><path d="M210.31496837 768.47785942h30.17386582v30.17386585h-30.17386582z" fill="#FD9746" p-id="4833"></path><path d="M210.31496837 738.32186914h30.17386582v30.1738658h-30.17386582z" fill="#FD9746" p-id="4834"></path><path d="M210.31496837 708.14800331h30.17386582v30.17386583h-30.17386582z" fill="#520C07" p-id="4835"></path><path d="M210.31496837 677.99201302h30.17386582v30.1381148h-30.17386582z" fill="#B54309" p-id="4836"></path><path d="M210.31496837 647.83602269h30.17386582v30.17386584h-30.17386582z" fill="#520C07" p-id="4837"></path><path d="M210.31496837 617.66215691h30.17386582v30.17386578h-30.17386582zM210.31496837 587.48829108h30.17386582v30.17386583h-30.17386582z" fill="#6BA348" p-id="4838"></path><path d="M210.31496837 557.31442525h30.17386582v30.17386583h-30.17386582z" fill="#520C07" p-id="4839"></path><path d="M210.31496837 527.14055947h30.17386582v30.17386578h-30.17386582zM210.31496837 496.96669364h30.17386582v30.17386583h-30.17386582z" fill="#C30202" p-id="4840"></path><path d="M210.31496837 466.7928278h30.17386582v30.17386584h-30.17386582z" fill="#520C07" p-id="4841"></path><path d="M210.31496837 436.65471302h30.17386582v30.13811478h-30.17386582z" fill="#FA7D12" p-id="4842"></path><path d="M210.31496837 406.48084721h30.17386582v30.17386581h-30.17386582z" fill="#FD9746" p-id="4843"></path><path d="M210.31496837 376.30698141h30.17386582v30.1738658h-30.17386582z" fill="#520C07" p-id="4844"></path><path d="M210.31496837 346.15099111h30.17386582v30.1738658h-30.17386582zM210.31496837 315.97712527h30.17386582v30.17386584h-30.17386582z" fill="#FFCB78" p-id="4845"></path><path d="M180.14110255 919.34718851h30.17386582v30.1381148h-30.17386582zM180.14110255 889.17332271h30.17386582v30.1738658h-30.17386582z" fill="#8C3007" p-id="4846"></path><path d="M180.14110255 858.99945689h30.17386582V889.17332271h-30.17386582zM180.14110255 828.82559106h30.17386582v30.17386583h-30.17386582z" fill="#FFCB78" p-id="4847"></path><path d="M180.14110255 798.65172527h30.17386582v30.17386579h-30.17386582zM180.14110255 768.47785942h30.17386582v30.17386585h-30.17386582z" fill="#520C07" p-id="4848"></path><path d="M180.14110255 738.32186914h30.17386582v30.1738658h-30.17386582z" fill="#520C07" p-id="4849"></path><path d="M180.14110255 708.14800331h30.17386582v30.17386583h-30.17386582z" fill="#FFCB78" p-id="4850"></path><path d="M180.14110255 677.99201302h30.17386582v30.1381148h-30.17386582z" fill="#520C07" p-id="4851"></path><path d="M180.14110255 647.83602269h30.17386582v30.17386584h-30.17386582zM180.14110255 617.66215691h30.17386582v30.17386578h-30.17386582zM180.14110255 587.48829108h30.17386582v30.17386583h-30.17386582z" fill="#6BA348" p-id="4852"></path><path d="M180.14110255 557.31442525h30.17386582v30.17386583h-30.17386582z" fill="#520C07" p-id="4853"></path><path d="M180.14110255 527.14055947h30.17386582v30.17386578h-30.17386582zM180.14110255 496.96669364h30.17386582v30.17386583h-30.17386582z" fill="#C30202" p-id="4854"></path><path d="M180.14110255 466.7928278h30.17386582v30.17386584h-30.17386582z" fill="#520C07" p-id="4855"></path><path d="M180.14110255 436.65471302h30.17386582v30.13811478h-30.17386582zM180.14110255 406.48084721h30.17386582v30.17386581h-30.17386582z" fill="#520C07" p-id="4856"></path><path d="M180.14110255 376.30698141h30.17386582v30.1738658h-30.17386582z" fill="#FFCB78" p-id="4857"></path><path d="M180.14110255 346.15099111h30.17386582v30.1738658h-30.17386582z" fill="#FFCB78" p-id="4858"></path><path d="M149.96723675 858.99945689h30.1738658V889.17332271h-30.1738658z" fill="#8C3007" p-id="4859"></path><path d="M149.96723675 828.82559106h30.1738658v30.17386583h-30.1738658zM149.96723675 798.65172527h30.1738658v30.17386579h-30.1738658zM149.96723675 768.47785942h30.1738658v30.17386585h-30.1738658z" fill="#FFCB78" p-id="4860"></path><path d="M149.96723675 738.32186914h30.1738658v30.1738658h-30.1738658zM149.96723675 708.14800331h30.1738658v30.17386583h-30.1738658zM149.96723675 677.99201302h30.1738658v30.1381148h-30.1738658z" fill="#FFCB78" p-id="4861"></path><path d="M149.96723675 647.83602269h30.1738658v30.17386584h-30.1738658z" fill="#520C07" p-id="4862"></path><path d="M149.96723675 617.66215691h30.1738658v30.17386578h-30.1738658zM149.96723675 587.48829108h30.1738658v30.17386583h-30.1738658z" fill="#6BA348" p-id="4863"></path><path d="M149.96723675 557.31442525h30.1738658v30.17386583h-30.1738658zM149.96723675 527.14055947h30.1738658v30.17386578h-30.1738658zM149.96723675 496.96669364h30.1738658v30.17386583h-30.1738658z" fill="#520C07" p-id="4864"></path><path d="M149.96723675 466.7928278h30.1738658v30.17386584h-30.1738658z" fill="#FFCB78" p-id="4865"></path><path d="M149.96723675 436.65471302h30.1738658v30.13811478h-30.1738658zM149.96723675 406.48084721h30.1738658v30.17386581h-30.1738658zM149.96723675 376.30698141h30.1738658v30.1738658h-30.1738658zM119.82912194 677.99201302h30.13811481v30.1381148h-30.13811481z" fill="#FFCB78" p-id="4866"></path><path d="M119.82912194 647.83602269h30.13811481v30.17386584h-30.13811481z" fill="#FFCB78" p-id="4867"></path><path d="M119.82912194 617.66215691h30.13811481v30.17386578h-30.13811481z" fill="#520C07" p-id="4868"></path><path d="M119.82912194 587.48829108h30.13811481v30.17386583h-30.13811481z" fill="#6BA348" p-id="4869"></path><path d="M119.82912194 557.31442525h30.13811481v30.17386583h-30.13811481z" fill="#520C07" p-id="4870"></path><path d="M119.82912194 527.14055947h30.13811481v30.17386578h-30.13811481zM119.82912194 496.96669364h30.13811481v30.17386583h-30.13811481zM119.82912194 466.7928278h30.13811481v30.17386584h-30.13811481zM89.65525614 647.83602269h30.1738658v30.17386584h-30.1738658zM89.65525614 617.66215691h30.1738658v30.17386578h-30.1738658z" fill="#FFCB78" p-id="4871"></path><path d="M89.65525614 587.48829108h30.1738658v30.17386583h-30.1738658zM89.65525614 557.31442525h30.1738658v30.17386583h-30.1738658z" fill="#520C07" p-id="4872"></path><path d="M89.65525614 527.14055947h30.1738658v30.17386578h-30.1738658zM59.4813903 617.66215691h30.17386584v30.17386578h-30.17386584zM59.4813903 587.48829108h30.17386584v30.17386583h-30.17386584zM59.4813903 557.31442525h30.17386584v30.17386583h-30.17386584zM59.4813903 527.14055947h30.17386584v30.17386578h-30.17386584zM662.83357805 74.51469669h30.17386584v30.17386582h-30.17386584zM632.65971222 74.51469669h30.17386583v30.17386582H632.65971222zM602.48584642 74.51469669h30.1738658v30.17386582h-30.1738658zM572.3119806 74.51469669h30.17386582v30.17386582h-30.17386582zM542.13811477 74.51469669h30.17386583v30.17386582h-30.17386583z" fill="#FFCB78" p-id="4873"></path><path d="M511.98212448 74.51469669h30.17386582v30.17386582h-30.17386582zM481.80825868 74.51469669h30.1738658v30.17386582h-30.1738658zM451.65226836 74.51469669h30.13811478v30.17386582h-30.13811478z" fill="#FFCB78" p-id="4874"></path></svg>